<?xml version="1.0" encoding="UTF-8" standalone="no"?>
<svg
   id="Layer_1"
   data-name="Layer 1"
   viewBox="0 0 16 16"
   version="1.1"
   sodipodi:docname="fog_of_war_icon2.svg"
   xml:space="preserve"
   width="16"
   height="16"
   inkscape:version="1.4 (e7c3feb100, 2024-10-09)"
   inkscape:export-filename="fog_of_war_icon2.svg"
   inkscape:export-xdpi="96"
   inkscape:export-ydpi="96"
   xmlns:inkscape="http://www.inkscape.org/namespaces/inkscape"
   xmlns:sodipodi="http://sodipodi.sourceforge.net/DTD/sodipodi-0.dtd"
   xmlns="http://www.w3.org/2000/svg"
   xmlns:svg="http://www.w3.org/2000/svg"
   xmlns:rdf="http://www.w3.org/1999/02/22-rdf-syntax-ns#"
   xmlns:cc="http://creativecommons.org/ns#"
   xmlns:dc="http://purl.org/dc/elements/1.1/"><sodipodi:namedview
     id="namedview1"
     pagecolor="#505050"
     bordercolor="#eeeeee"
     borderopacity="1"
     inkscape:showpageshadow="0"
     inkscape:pageopacity="0"
     inkscape:pagecheckerboard="0"
     inkscape:deskcolor="#505050"
     inkscape:zoom="82.024387"
     inkscape:cx="6.8881953"
     inkscape:cy="9.7531969"
     inkscape:window-width="3840"
     inkscape:window-height="2111"
     inkscape:window-x="0"
     inkscape:window-y="0"
     inkscape:window-maximized="1"
     inkscape:current-layer="layer1"><inkscape:page
       x="0"
       y="0"
       width="16"
       height="16"
       id="page2"
       margin="0"
       bleed="0" /></sodipodi:namedview><defs
     id="defs1"><style
       id="style1">.cls-1{fill-rule:evenodd;}</style></defs><title
     id="title1">chess-pawn</title><g
     inkscape:groupmode="layer"
     id="layer1"
     inkscape:label="Layer 1"
     style="opacity:0.75"><path
       class="cls-1"
       d="m 6.978834,3.9476702 a 1.9339641,2.4698456 0 1 1 3.112311,0 z m 3.315637,0.4686064 a 0.67144965,0.8575014 0 0 1 0.5835,0.845424 v 0 A 0.67239538,0.85870918 0 0 1 10.252859,6.1143707 H 6.8152272 A 0.67144965,0.8575014 0 0 1 6.1910627,5.2617006 v 0 A 0.67144965,0.8575014 0 0 1 6.774562,4.4162766 Z M 9.5889763,6.5841853 c 0.08606,1.7596888 0.5674227,3.1485995 1.7731937,3.8466787 v 0.646144 H 5.7087538 V 10.430864 C 6.8435981,9.9719191 7.380758,8.6192408 7.4800568,6.5841853 Z m 1.8025107,4.9578077 a 1.3608677,1.73795 0 0 1 1.198207,1.718624 v 0.02657 H 4.4812302 v -0.02657 a 1.3608677,1.73795 0 0 1 1.1991522,-1.718624 h 0.029317 5.6524696 z m 1.183076,2.212592 a 1.1348444,1.4492981 0 0 1 0.896527,1.10026 H 3.5998342 a 1.1348444,1.4492981 0 0 1 0.8955817,-1.10026 z"
       id="path1"
       inkscape:label="Pawn"
       style="fill:#ffffff;fill-opacity:1;stroke:none;stroke-width:0.106528;stroke-dasharray:none;stroke-opacity:1" /></g><g
     inkscape:groupmode="layer"
     id="layer2"
     inkscape:label="Layer 2"
     style="opacity:1;mix-blend-mode:normal"><path
       style="fill:none;fill-opacity:1;fill-rule:evenodd;stroke:#ffffff;stroke-width:1.07281;stroke-opacity:1;paint-order:markers fill stroke"
       d="m 13.222078,8.5540423 c 0,0 2.258647,0.064971 2.258647,3.3262497 0,3.261281 -2.67602,3.594644 -2.67602,3.594644 H 3.0824231 c 0,0 -2.52871037,-0.24801 -2.52871037,-3.594644 0,-3.3466279 2.31619497,-3.3157977 2.31619497,-3.3157977 0,0 0.1712492,-4.2412371 3.2261636,-4.2412371 3.0549139,0 3.0407336,3.1125824 3.0407336,3.1125824 0,0 -0.083395,-1.6409582 1.7856421,-1.6409582 1.869035,0 2.299631,2.7591609 2.299631,2.7591609 z"
       id="path2"
       sodipodi:nodetypes="cccczczczc" /></g><metadata
     id="metadata1"><rdf:RDF><cc:Work
         rdf:about=""><dc:title>chess-pawn</dc:title></cc:Work></rdf:RDF></metadata></svg>
