<?xml version="1.0" encoding="UTF-8" standalone="no"?>
<svg
   id="Layer_1"
   data-name="Layer 1"
   viewBox="0 0 16 16"
   version="1.1"
   sodipodi:docname="fog_of_war_icon2.svg"
   xml:space="preserve"
   width="16"
   height="16"
   inkscape:version="1.4 (e7c3feb100, 2024-10-09)"
   inkscape:export-filename="fog_of_war_icon2.svg"
   inkscape:export-xdpi="96"
   inkscape:export-ydpi="96"
   xmlns:inkscape="http://www.inkscape.org/namespaces/inkscape"
   xmlns:sodipodi="http://sodipodi.sourceforge.net/DTD/sodipodi-0.dtd"
   xmlns="http://www.w3.org/2000/svg"
   xmlns:svg="http://www.w3.org/2000/svg"
   xmlns:rdf="http://www.w3.org/1999/02/22-rdf-syntax-ns#"
   xmlns:cc="http://creativecommons.org/ns#"
   xmlns:dc="http://purl.org/dc/elements/1.1/"><sodipodi:namedview
     id="namedview1"
     pagecolor="#505050"
     bordercolor="#eeeeee"
     borderopacity="1"
     inkscape:showpageshadow="0"
     inkscape:pageopacity="0"
     inkscape:pagecheckerboard="0"
     inkscape:deskcolor="#505050"
     inkscape:zoom="41.012194"
     inkscape:cx="4.3889386"
     inkscape:cy="12.606007"
     inkscape:window-width="2880"
     inkscape:window-height="1565"
     inkscape:window-x="3840"
     inkscape:window-y="540"
     inkscape:window-maximized="1"
     inkscape:current-layer="layer2"
     showguides="false"><inkscape:page
       x="0"
       y="0"
       width="16"
       height="16"
       id="page2"
       margin="0"
       bleed="0" /></sodipodi:namedview><defs
     id="defs1"><style
       id="style1">.cls-1{fill-rule:evenodd;}</style></defs><title
     id="title1">chess-pawn</title><g
     inkscape:groupmode="layer"
     id="layer1"
     inkscape:label="Layer 1"
     style="opacity:0.75"><path
       class="cls-1"
       d="m 6.3221461,4.2428795 a 2.0845753,2.6621897 0 1 1 3.3546879,0 z M 9.895995,4.7479796 a 0.72374011,0.92428101 0 0 1 0.628941,0.9112631 v 0 A 0.72475949,0.92558285 0 0 1 9.8511422,6.5783162 H 6.1457981 A 0.72374011,0.92428101 0 0 1 5.4730256,5.6592427 v 0 A 0.72374011,0.92428101 0 0 1 6.101966,4.7479796 Z M 9.1355588,7.0847185 c 0.092757,1.896728 0.6116119,3.3938025 1.9112842,4.1462465 v 0.696464 H 4.9531559 V 11.230965 C 6.1763785,10.736279 6.7553707,9.2782579 6.8624026,7.0847185 Z m 1.9428842,5.3439065 a 1.4668479,1.8732963 0 0 1 1.29152,1.852466 v 0.02864 H 3.6300365 v -0.02864 A 1.4668479,1.8732963 0 0 1 4.922575,12.428625 h 0.0316 6.092667 z m 1.275211,2.384902 A 1.2232226,1.5621651 0 0 1 13.32,15.999472 H 2.68 a 1.2232226,1.5621651 0 0 1 0.9653269,-1.185945 z"
       id="path1"
       inkscape:label="Pawn"
       style="fill:#ffffff;fill-opacity:1;stroke:none;stroke-width:0.114824;stroke-dasharray:none;stroke-opacity:1" /></g><g
     inkscape:groupmode="layer"
     id="layer2"
     inkscape:label="Layer 2"
     style="opacity:1;mix-blend-mode:normal"><path
       style="fill:none;fill-opacity:1;fill-rule:evenodd;stroke:#ffffff;stroke-width:1.69036;stroke-dasharray:none;stroke-opacity:1;paint-order:markers fill stroke"
       d="m 12.98959,10.003123 c 0,0 2.165231,0.04841 2.165231,2.478546 0,2.430134 -1.955767,2.678539 -1.955767,2.678539 H 2.6350834 c 0,0 -1.79016683,-0.184804 -1.79016683,-2.678539 0,-2.4937302 2.22066173,-2.470757 2.22066173,-2.470757 0,0 0.1641665,-3.160346 3.0927317,-3.160346 2.9285647,0 2.9149709,2.3193319 2.9149709,2.3193319 0,0 -0.079947,-1.2227554 1.7117881,-1.2227554 1.791734,0 2.204521,2.0559805 2.204521,2.0559805 z"
       id="path2"
       sodipodi:nodetypes="cccczczczc" /></g><metadata
     id="metadata1"><rdf:RDF><cc:Work
         rdf:about=""><dc:title>chess-pawn</dc:title></cc:Work></rdf:RDF></metadata></svg>
