<?xml version="1.0" encoding="UTF-8" standalone="no"?>
<svg
   height="16"
   viewBox="0 0 16 16"
   width="16"
   version="1.1"
   id="svg1"
   sodipodi:docname="minimap_icon.svg"
   inkscape:version="1.4 (e7c3feb100, 2024-10-09)"
   inkscape:export-filename="minimap_icon.png"
   inkscape:export-xdpi="96"
   inkscape:export-ydpi="96"
   xmlns:inkscape="http://www.inkscape.org/namespaces/inkscape"
   xmlns:sodipodi="http://sodipodi.sourceforge.net/DTD/sodipodi-0.dtd"
   xmlns="http://www.w3.org/2000/svg"
   xmlns:svg="http://www.w3.org/2000/svg">
  <defs
     id="defs1" />
  <sodipodi:namedview
     id="namedview1"
     pagecolor="#505050"
     bordercolor="#eeeeee"
     borderopacity="1"
     inkscape:showpageshadow="0"
     inkscape:pageopacity="0"
     inkscape:pagecheckerboard="0"
     inkscape:deskcolor="#505050"
     inkscape:zoom="90.509668"
     inkscape:cx="4.4580873"
     inkscape:cy="7.767126"
     inkscape:window-width="3840"
     inkscape:window-height="2111"
     inkscape:window-x="0"
     inkscape:window-y="0"
     inkscape:window-maximized="1"
     inkscape:current-layer="svg1" />
  <path
     d="M 0,0 V 16 H 16 V 0 Z M 2.2857144,2.2857144 H 13.714286 V 13.714286 H 2.2857144 Z"
     fill="#8eef97"
     id="path1"
     style="display:inline;stroke-width:1.14285"
     sodipodi:nodetypes="cccccccccc"
     sodipodi:insensitive="true" />
  <path
     d="m 8.0081183,3.2090112 c -2.0573481,0 -4.6594065,1.56735 -5.5959543,4.5902112 -0.041362,0.1446095 -0.041362,0.2979176 0,0.4425269 0.8995366,3.1829747 3.5844684,4.6223947 5.5959543,4.6223947 2.0114857,0 4.6956137,-1.43942 5.6007827,-4.6063027 0.04137,-0.1446093 0.04137,-0.2979175 0,-0.442527 C 12.723846,4.7659015 10.063053,3.2090112 8.0081183,3.2090112 Z m 0,1.6091889 c 4.2911687,0 4.2911687,6.4367549 0,6.4367549 -4.2911687,0 -4.2911687,-6.4367549 0,-6.4367549 z m 0,1.6091888 c -2.1455842,0 -2.1455842,3.218378 0,3.218378 2.1455847,0 2.1455847,-3.218378 0,-3.218378 z"
     fill="#fc7f7f"
     id="path1-5"
     style="display:inline;fill:#8eef97;fill-opacity:1;stroke-width:0.804594"
     sodipodi:nodetypes="sccsccsssssss" />
</svg>
